<?xml version="1.0" encoding="UTF-8" standalone="no"?>
<!DOCTYPE svg PUBLIC "-//W3C//DTD SVG 1.1//EN" "http://www.w3.org/Graphics/SVG/1.1/DTD/svg11.dtd">
<svg width="100%" height="100%" viewBox="0 0 1080 1080" version="1.1" xmlns="http://www.w3.org/2000/svg" xmlns:xlink="http://www.w3.org/1999/xlink" xml:space="preserve" xmlns:serif="http://www.serif.com/" style="fill-rule:evenodd;clip-rule:evenodd;stroke-linejoin:round;stroke-miterlimit:1.41421;">
    <g transform="matrix(0.559099,0,0,0.559099,184.817,184.692)">
        <g id="noun_924661" transform="matrix(12.8522,0,0,12.8522,637.975,637.975)">
            <g transform="matrix(1,0,0,1,-50,-50)">
                <g transform="matrix(1,0,0,1,0,-952.362)">
                    <path d="M49.75,958.371C49.449,958.41 49.16,958.517 48.906,958.684C38.71,965.377 28.542,969.153 18.313,971.403C17.612,971.563 17.05,972.089 16.844,972.778C12.754,986.176 12.974,1001.53 18.156,1015.09C23.339,1028.65 33.582,1040.43 49.313,1046.25C49.756,1046.41 50.244,1046.41 50.688,1046.25C66.418,1040.43 76.662,1028.65 81.844,1015.09C87.026,1001.53 87.246,986.176 83.156,972.778C82.95,972.089 82.388,971.563 81.688,971.403C71.458,969.153 61.29,965.377 51.094,958.684C50.697,958.424 50.221,958.313 49.75,958.371L49.75,958.371ZM50,962.684C59.858,968.963 69.733,972.716 79.563,974.996C83.07,987.295 82.828,1001.35 78.125,1013.65C73.371,1026.09 64.207,1036.7 50,1042.18C35.793,1036.7 26.661,1026.09 21.906,1013.65C17.204,1001.35 16.93,987.295 20.438,974.996C30.267,972.716 40.142,968.963 50,962.684L50,962.684Z" style="fill:white;fill-rule:nonzero;"/>
                </g>
            </g>
        </g>
        <g transform="matrix(1.07315,0,0,1.07315,6.51068,10.5004)">
            <path d="M316.044,373.104L316.044,710.249L383.599,710.249L383.599,575.349L484.617,575.349L484.617,710.249L552.172,710.249L552.172,373.104L484.617,373.104L484.617,508.004L383.599,508.004L383.599,373.104L316.044,373.104Z" style="fill:white;fill-rule:nonzero;"/>
            <path d="M751.489,373.104C705.058,373.104 665.355,389.626 632.379,422.672C599.404,455.717 582.916,495.385 582.916,541.676C582.916,588.107 599.404,627.81 632.379,660.786C665.355,693.761 705.058,710.249 751.489,710.249C774.634,710.249 796.42,705.822 816.847,696.968C837.274,688.114 855.226,676.019 870.703,660.681L823.017,612.996C803.218,632.795 779.375,642.694 751.489,642.694C723.602,642.694 699.795,632.83 680.065,613.1C660.335,593.371 650.471,569.563 650.471,541.676C650.471,513.93 660.335,490.122 680.065,470.253C699.795,450.384 723.602,440.449 751.489,440.449C779.096,440.449 802.939,450.349 823.017,470.148L870.703,422.463C855.226,407.264 837.274,395.239 816.847,386.385C796.42,377.531 774.634,373.104 751.489,373.104Z" style="fill:white;fill-rule:nonzero;"/>
        </g>
    </g>
</svg>
